<svg width="352" height="66" viewBox="0 0 352 66" fill="none" xmlns="http://www.w3.org/2000/svg">
<path d="M118.822 51.9938H109.427V48.512C106.644 51.2974 102.817 53.0383 98.2933 53.0383C90.6386 53.0383 85.7675 48.512 85.7675 42.2449C85.7675 35.6297 90.9866 31.4516 99.6851 31.4516H108.732V29.7107C108.732 25.5327 106.296 23.0955 101.773 23.0955C97.9454 23.0955 95.5098 24.4881 92.0304 27.9699L86.8113 21.7028C90.9866 16.8284 96.2057 14.043 102.817 14.043C112.211 14.043 118.474 19.6137 118.474 29.7107V51.9938H118.822ZM108.732 37.7187H100.729C97.5975 37.7187 95.5098 39.1114 95.5098 41.5486C95.5098 43.9858 97.5975 45.3785 100.729 45.3785C105.252 45.3785 108.384 42.2449 108.384 38.0669V37.7187H108.732Z" fill="black"/>
<path d="M132.739 37.0251C133.783 41.5514 137.611 44.3368 143.178 44.3368C146.657 44.3368 150.136 42.9441 153.268 40.5069L157.443 47.4703C152.92 50.952 148.049 53.0411 142.83 53.0411C131.348 53.3892 122.649 44.3368 122.649 33.8916C122.301 23.4464 131.348 14.394 141.786 14.7421C151.876 14.7421 159.183 22.0537 159.183 31.8026C159.183 33.5434 158.835 35.2843 158.487 37.3733H132.739V37.0251ZM149.093 29.7135C149.093 25.1873 145.613 22.4019 141.09 22.4019C136.915 22.4019 133.435 25.1873 132.391 29.7135H149.093Z" fill="black"/>
<path d="M199.892 15.087V47.8151C199.892 59.653 192.585 65.9201 181.103 65.9201C174.144 65.9201 168.229 63.4829 163.01 58.9566L168.229 51.9932C172.405 55.1267 175.536 56.8676 180.059 56.8676C185.974 56.8676 189.802 54.0822 189.802 48.1633V46.0743C187.018 48.8597 183.191 50.6005 178.668 50.6005C168.577 50.6005 161.271 43.2889 161.271 32.4956C161.271 21.7022 168.925 14.3906 178.668 14.3906C183.887 14.3906 188.062 16.4797 190.498 19.9614V15.4352H199.892V15.087ZM180.755 23.0949C175.188 23.0949 171.361 26.5766 171.361 32.4956C171.361 38.4145 175.536 42.2444 180.755 42.2444C185.627 42.2444 190.15 38.7626 190.15 32.4956C189.802 26.2285 185.627 23.0949 180.755 23.0949Z" fill="black"/>
<path d="M205.459 15.0859H215.549V36.3244C215.549 40.5025 218.333 43.2879 222.508 43.2879C226.335 43.2879 229.467 40.5025 229.467 36.3244V15.0859H239.557V35.6281C239.557 45.7251 232.25 52.6885 222.856 52.6885C213.114 52.6885 205.807 45.7251 205.807 35.6281V15.0859H205.459Z" fill="black"/>
<path d="M275.744 51.9938H266.697V48.512C263.914 51.2974 260.086 53.0383 255.563 53.0383C247.908 53.0383 243.037 48.512 243.037 42.2449C243.037 35.6297 248.256 31.4516 256.955 31.4516H266.001V29.7107C266.001 25.5327 263.566 23.0955 259.043 23.0955C255.215 23.0955 252.78 24.4881 249.3 27.9699L244.081 21.7028C248.256 16.8284 253.475 14.043 260.086 14.043C269.481 14.043 275.744 19.6137 275.744 29.7107V51.9938ZM266.001 37.7187H257.999C254.867 37.7187 252.78 39.1114 252.78 41.5486C252.78 43.9858 254.867 45.3785 257.999 45.3785C262.522 45.3785 265.653 42.2449 265.653 38.0669V37.7187H266.001Z" fill="black"/>
<path d="M315.409 51.9927H305.666V30.7542C305.666 26.5761 302.883 23.7907 298.707 23.7907C294.532 23.7907 291.749 26.5761 291.749 30.7542V51.9927H281.658V15.4346H290.705V18.9163C293.14 16.4791 296.968 14.7383 301.491 14.7383C309.842 14.7383 315.409 20.6572 315.409 29.3615V51.9927Z" fill="black"/>
<path d="M351.942 51.9938H342.896V48.512C340.112 51.2974 336.285 53.0383 331.762 53.0383C324.107 53.0383 319.236 48.512 319.236 42.2449C319.236 35.6297 324.455 31.4516 333.154 31.4516H342.2V29.7107C342.2 25.5327 339.764 23.0955 335.241 23.0955C331.414 23.0955 328.978 24.4881 325.499 27.9699L320.28 21.7028C324.455 16.8284 329.674 14.043 336.285 14.043C345.679 14.043 351.942 19.6137 351.942 29.7107V51.9938ZM341.852 37.7187H333.849C330.718 37.7187 328.63 39.1114 328.63 41.5486C328.63 43.9858 330.718 45.3785 333.849 45.3785C338.373 45.3785 341.504 42.2449 341.504 38.0669V37.7187H341.852Z" fill="black"/>
<path fill-rule="evenodd" clip-rule="evenodd" d="M32.1845 36.6745L17.919 51.2978C17.2231 51.9941 15.8313 51.9941 15.1354 51.2978L0.521912 36.6745C-0.173971 35.9781 -0.173971 34.5855 0.521912 33.8891L15.1354 19.6141C15.8313 18.9177 17.2231 18.9177 17.919 19.6141L32.1845 33.8891C32.8804 34.9337 32.8804 35.9781 32.1845 36.6745Z" fill="#9E39F7"/>
<path fill-rule="evenodd" clip-rule="evenodd" d="M50.6253 18.2214L36.0118 32.4964C35.3159 33.1928 33.9242 33.1928 33.2283 32.4964L18.9627 18.2214C18.2668 17.5251 18.2668 16.1324 18.9627 15.436L33.2283 1.16093C33.9242 0.464586 35.3159 0.464586 36.0118 1.16093L50.6253 15.436C51.6692 16.1324 51.6692 17.5251 50.6253 18.2214Z" fill="#E22696"/>
<path fill-rule="evenodd" clip-rule="evenodd" d="M69.4143 37.0221L54.8008 51.6453C54.1049 52.3417 52.7131 52.3417 52.0172 51.6453L37.7516 37.0221C37.0558 36.3258 37.0558 34.9331 37.7516 34.2367L52.0172 19.9617C52.7131 19.2654 54.1049 19.2654 54.8008 19.9617L69.4143 34.2367C70.1102 34.9331 70.1102 35.9776 69.4143 37.0221Z" fill="#00C1AB"/>
</svg>
